2014053_C4_04_grf
version=1
nRows=21
nColumns=19
inDegrees=no
endheader
time	ground_force_1_vx	ground_force_1_vy	ground_force_1_vz	ground_force_1_px	ground_force_1_py	ground_force_1_pz	ground_force_1_mx	ground_force_1_my	ground_force_1_mz	ground_force_2_vx	ground_force_2_vy	ground_force_2_vz	ground_force_2_px	ground_force_2_py	ground_force_2_pz	ground_force_2_mx	ground_force_2_my	ground_force_2_mz
      0.45200000	      3.48179298	    527.99189091	     10.31926386	      0.23646485	      0.00000000	     -0.21501359	      0.00000000	     -1.20037297	      0.00000000	      0.00000000	      0.00000000	      0.00000000	      0.00000000	      0.00000000	      0.00000000	      0.00000000	      0.00000000	      0.00000000
      0.45300000	      3.69051716	    528.70434523	     10.43727715	      0.23690379	      0.00000000	     -0.21498395	      0.00000000	     -1.21569416	      0.00000000	      0.00000000	      0.00000000	      0.00000000	      0.00000000	      0.00000000	      0.00000000	      0.00000000	      0.00000000	      0.00000000
      0.45400000	      3.89763201	    529.42728996	     10.55281609	      0.23734730	      0.00000000	     -0.21495404	      0.00000000	     -1.23087023	     -0.00000000	      0.00000000	      0.00000000	      0.00000000	      0.00000000	      0.00000000	      0.00000000	      0.00000000	      0.00000000	      0.00000000
      0.45500000	      4.10282356	    530.16325831	     10.66520680	      0.23779653	      0.00000000	     -0.21492382	      0.00000000	     -1.24585942	     -0.00000000	      0.00000000	      0.00000000	      0.00000000	      0.00000000	      0.00000000	      0.00000000	      0.00000000	      0.00000000	      0.00000000
      0.45600000	      4.30654967	    530.90947866	     10.77505052	      0.23825031	      0.00000000	     -0.21489339	      0.00000000	     -1.26069476	      0.00000000	      0.00000000	      0.00000000	      0.00000000	      0.00000000	      0.00000000	      0.00000000	      0.00000000	      0.00000000	      0.00000000
      0.45700000	      4.50853258	    531.66836500	     10.88169236	      0.23870976	      0.00000000	     -0.21486270	      0.00000000	     -1.27533385	      0.00000000	      0.00000000	      0.00000000	      0.00000000	      0.00000000	      0.00000000	      0.00000000	      0.00000000	      0.00000000	      0.00000000
      0.45800000	      4.70919255	    532.43726492	     10.98576821	      0.23917373	      0.00000000	     -0.21483182	      0.00000000	     -1.28981253	      0.00000000	      0.00000000	      0.00000000	      0.00000000	      0.00000000	      0.00000000	      0.00000000	      0.00000000	      0.00000000	      0.00000000
      0.45900000	      4.90828324	    533.21844339	     11.08664833	      0.23964334	      0.00000000	     -0.21480074	      0.00000000	     -1.30408648	      0.00000000	      0.00000000	      0.00000000	      0.00000000	      0.00000000	      0.00000000	      0.00000000	      0.00000000	      0.00000000	      0.00000000
      0.46000000	      5.10617718	    534.00933743	     11.18499711	      0.24011745	      0.00000000	     -0.21476951	      0.00000000	     -1.31819312	      0.00000000	      0.00000000	      0.00000000	      0.00000000	      0.00000000	      0.00000000	      0.00000000	      0.00000000	      0.00000000	      0.00000000
      0.46100000	      5.30262967	    534.81215239	     11.28024682	      0.24059721	      0.00000000	     -0.21473811	     -0.00000000	     -1.33208692	     -0.00000000	      0.00000000	      0.00000000	      0.00000000	      0.00000000	      0.00000000	      0.00000000	      0.00000000	      0.00000000	      0.00000000
      0.46200000	      5.49795898	    535.62420607	     11.37308814	      0.24108148	      0.00000000	     -0.21470659	      0.00000000	     -1.34580763	      0.00000000	      0.00000000	      0.00000000	      0.00000000	      0.00000000	      0.00000000	      0.00000000	      0.00000000	      0.00000000	      0.00000000
      0.46300000	      5.69190620	    536.44761443	     11.46302875	      0.24157141	      0.00000000	     -0.21467492	      0.00000000	     -1.35930841	      0.00000000	      0.00000000	      0.00000000	      0.00000000	      0.00000000	      0.00000000	      0.00000000	      0.00000000	      0.00000000	      0.00000000
      0.46400000	      5.88475680	    537.27978468	     11.55074760	      0.24206584	      0.00000000	     -0.21464313	      0.00000000	     -1.37263131	      0.00000000	      0.00000000	      0.00000000	      0.00000000	      0.00000000	      0.00000000	      0.00000000	      0.00000000	      0.00000000	      0.00000000
      0.46500000	      6.07623695	    538.12280297	     11.63582448	      0.24256593	      0.00000000	     -0.21461118	      0.00000000	     -1.38572924	      0.00000000	      0.00000000	      0.00000000	      0.00000000	      0.00000000	      0.00000000	      0.00000000	      0.00000000	      0.00000000	      0.00000000
      0.46600000	      6.26661070	    538.97422552	     11.71890646	      0.24307055	      0.00000000	     -0.21457910	      0.00000000	     -1.39864478	      0.00000000	      0.00000000	      0.00000000	      0.00000000	      0.00000000	      0.00000000	      0.00000000	      0.00000000	      0.00000000	      0.00000000
      0.46700000	      6.45557372	    539.83598948	     11.79965883	      0.24358084	      0.00000000	     -0.21454686	      0.00000000	     -1.41132840	      0.00000000	      0.00000000	      0.00000000	      0.00000000	      0.00000000	      0.00000000	      0.00000000	      0.00000000	      0.00000000	      0.00000000
      0.46800000	      6.64337585	    540.70574045	     11.87869124	      0.24409566	      0.00000000	     -0.21451451	      0.00000000	     -1.42382328	      0.00000000	      0.00000000	      0.00000000	      0.00000000	      0.00000000	      0.00000000	      0.00000000	      0.00000000	      0.00000000	      0.00000000
      0.46900000	      6.82967273	    541.58517718	     11.95575781	      0.24461616	      0.00000000	     -0.21448203	      0.00000000	     -1.43607830	     -0.00000000	      0.00000000	      0.00000000	      0.00000000	      0.00000000	      0.00000000	      0.00000000	      0.00000000	      0.00000000	      0.00000000
      0.47000000	      7.01471325	    542.47218370	     12.03140616	      0.24514120	      0.00000000	     -0.21444945	      0.00000000	     -1.44813748	      0.00000000	      0.00000000	      0.00000000	      0.00000000	      0.00000000	      0.00000000	      0.00000000	      0.00000000	      0.00000000	      0.00000000
      0.47100000	      7.19810952	    543.36830974	     12.10547816	      0.24567192	      0.00000000	     -0.21441680	      0.00000000	     -1.45994602	      0.00000000	      0.00000000	      0.00000000	      0.00000000	      0.00000000	      0.00000000	      0.00000000	      0.00000000	      0.00000000	      0.00000000
      0.47200000	      7.38012744	    544.27152872	     12.17844710	      0.24620718	      0.00000000	     -0.21438413	      0.00000000	     -1.47154861	      0.00000000	      0.00000000	      0.00000000	      0.00000000	      0.00000000	      0.00000000	      0.00000000	      0.00000000	      0.00000000	      0.00000000
